<?xml version="1.0" encoding="utf-8"?>
<!-- Generator: Adobe Illustrator 17.0.0, SVG Export Plug-In . SVG Version: 6.00 Build 0)  -->
<!DOCTYPE svg PUBLIC "-//W3C//DTD SVG 1.1//EN" "http://www.w3.org/Graphics/SVG/1.1/DTD/svg11.dtd">
<svg version="1.1" id="Camada_1" xmlns="http://www.w3.org/2000/svg" xmlns:xlink="http://www.w3.org/1999/xlink" x="0px" y="0px"
	 width="200px" height="200px" viewBox="0 0 200 200" enable-background="new 0 0 200 200" xml:space="preserve">
<g>
	<path fill="#FFFFFF" d="M62.765,125.494l68.87-49.287c0,0,36.381,45.176,36.381,53.581c0,8.407-3.561,41.153-16.377,46.851
		c-12.816,5.696-33.463,12.816-44.852,4.272S62.765,125.494,62.765,125.494z"/>
	<g>
		<g>
			<g>
				<path fill="#FFFFFF" d="M126.606,190.807c-15.754,0-30.608-7.648-39.735-20.458L26.915,86.234
					C11.319,64.345,16.433,33.84,38.32,18.238c8.311-5.922,18.084-9.051,28.261-9.051c15.749,0,30.605,7.645,39.738,20.458
					l59.949,84.116c7.556,10.603,10.534,23.514,8.375,36.358c-2.151,12.84-9.176,24.075-19.78,31.631
					C146.555,187.672,136.779,190.807,126.606,190.807z M66.581,22.001c-7.495,0-14.696,2.308-20.823,6.676
					c-16.134,11.495-19.904,33.98-8.402,50.121l59.952,84.112c6.728,9.444,17.681,15.08,29.298,15.08
					c7.489,0,14.69-2.305,20.82-6.679c7.817-5.564,12.994-13.844,14.584-23.315c1.583-9.464-0.61-18.983-6.179-26.799L95.879,37.081
					C89.149,27.637,78.195,22.001,66.581,22.001z"/>
			</g>
			<g>
				
					<rect x="90.183" y="57.65" transform="matrix(0.5804 0.8143 -0.8143 0.5804 121.9541 -36.7014)" fill="#FFFFFF" width="12.819" height="84.687"/>
			</g>
		</g>
	</g>
</g>
</svg>
