<?xml version="1.0" encoding="utf-8"?>
<!-- Generator: Adobe Illustrator 17.0.0, SVG Export Plug-In . SVG Version: 6.00 Build 0)  -->
<!DOCTYPE svg PUBLIC "-//W3C//DTD SVG 1.1//EN" "http://www.w3.org/Graphics/SVG/1.1/DTD/svg11.dtd">
<svg version="1.1" id="Camada_1" xmlns="http://www.w3.org/2000/svg" xmlns:xlink="http://www.w3.org/1999/xlink" x="0px" y="0px"
	 width="200px" height="200px" viewBox="0 0 200 200" enable-background="new 0 0 200 200" xml:space="preserve">
<g>
	<path fill="#FFFFFF" d="M100,137.071c8.666,0,17.333,4.137,22.414,12.41c7.066,11.504,10.707,26.792,10.707,39.196
		c0,23.113,31.587,2.311,31.587-50.077c0-52.389,45.18-98.156,1.428-131.331c-10.216-7.747-25.789-5.811-33.9-1.786
		c-12.298,6.102-18.749,7.503-32.237,7.503c-13.488,0-19.939-1.401-32.237-7.503c-8.111-4.025-23.683-5.96-33.9,1.786
		C-9.888,40.443,35.291,86.211,35.291,138.6c0,52.389,31.587,73.19,31.587,50.077c0-12.404,3.641-27.691,10.707-39.196
		C82.667,141.208,91.334,137.071,100,137.071z"/>
</g>
</svg>
