<?xml version="1.0" encoding="utf-8"?>
<!-- Generator: Adobe Illustrator 22.0.0, SVG Export Plug-In . SVG Version: 6.00 Build 0)  -->
<svg version="1.1" id="Camada_1" xmlns="http://www.w3.org/2000/svg" xmlns:xlink="http://www.w3.org/1999/xlink" x="0px" y="0px"
	 viewBox="0 0 491.5 172.6" style="enable-background:new 0 0 491.5 172.6;" xml:space="preserve">
<style type="text/css">
	.st0{fill-rule:evenodd;clip-rule:evenodd;fill:#FFFFFF;}
</style>
<path id="XMLID_773_" class="st0" d="M55.9,94.4L79.9,0C86,0,92.2,0,98.4,0c2.6,0,4.3,1.8,3.5,4.6C93.9,36.8,84,75.3,73.1,118
	c-9.9,0.7-17.5-6-18.4-14.5C54.3,100.1,55.2,97.6,55.9,94.4z"/>
<path id="XMLID_772_" class="st0" d="M41.8,0c2.7-0.1,4.3,1.8,3.6,4.6c-7.8,30.8-14.6,57.6-22.1,87.2c-1.9,10.7-0.5,23.5,6.2,34.4
	c6.6,11.2,17.1,19,29.7,22.1c12.5,3.2,25.4,1.4,36.6-5.3c11.2-6.6,18.9-17.1,22.1-29.6c3.2-12.6,1-26-5.3-36.7
	c-4.7-7.8-11.2-14-19.2-18.2c1.9-7.5,3.8-14.9,5.7-22.4c2.1,1,4.2,1.9,6.2,3.1c11.1,6.1,20.4,15,26.9,25.9
	c9.6,16.2,12.4,35.5,7.8,53.9c-4.6,18.3-16.2,33.9-32.5,43.6c-16.2,9.6-35.5,12.5-53.9,7.8C35.3,165.8,19.7,154.3,10,138
	c-9.6-16.1-12.4-35.7-7.8-53.9C9.2,56.1,16.3,28,23.3,0C29.4,0,35.8,0,41.8,0z"/>
<path id="XMLID_771_" class="st0" d="M113.2,112.2c-2.8,11.2-9.9,20.7-19.9,26.7c-9.9,5.9-21.8,7.6-32.9,4.8
	c-11.2-2.9-20.8-10-26.7-20c-6-9.8-7.9-21.7-5.1-32.9L51.6,0C57.8,0,63.8,0,70,0c2.6,0,4.2,1.8,3.5,4.6L73.5,5l-6.4,25.2
	c-5.9,23.3-14.1,55.9-16.2,64.5c-0.9,3.3-1.4,5.7-1,9.2c0.3,3.2,1.4,6.3,3.2,9.1c0.9,1.4,1.9,2.7,3,3.7c11.9,11.8,31.7,5.8,35.7-9.9
	c1.4-5.6,0.5-11.3-2.4-16.1c-1-1.5-1.9-2.9-3.1-4.1c1.9-7.7,3.8-15.4,5.9-23.1c6.6,3.6,12.3,9.1,16.2,15.7
	C114.4,89.2,116.1,100.9,113.2,112.2z"/>
<path id="XMLID_770_" class="st0" d="M174.1,113c7.3,0,44.4,0,47.1,0c1.1,0,2.2-0.4,2.7-1.8c2.1-8.4,0.6-2.5,2.9-11.2
	c0.5-2.2-0.6-4.1-3.1-4.1c-12.3,0-18.2,0-30.6,0c-3.8,0-5.2-3-4.5-6.1l3.8-15.1h50.3c7.7-0.1,15.2,5.1,12.3,16.5
	c-3.1,12.6-7.1,28.2-9,36c-1,3.8-4.6,6.9-8.7,6.9c-5.6,0-10,0-16,0c-10.2,0-52.9,0-71,0c-4.9,0-7.1-3.8-6.2-7.4L167,36.1h7.5
	c4.3,0,8.6,0,12.8,0c3.4,0,5.5,2.4,4.6,5.9C186,65.6,179.9,89.3,174.1,113z"/>
<path id="XMLID_769_" class="st0" d="M478.5,74.7c9.5,0,14.8,6.5,12.4,16.5l-10.8,43c-6.7,0-13.5,0-20.2,0c-3.6,0-5.3-2.9-4.5-6
	c2.9-11.2,3.4-13.7,6.4-25.7c0.9-3.3,1.7-6.6-2.5-6.6c-5.3,0-9,0-14.4,0l-9.6,38.3c-6.6,0-13.5,0-20.1,0c-3.6,0-5.3-2.9-4.5-6
	c2.1-8.7,3.8-15.5,7.1-28c0.4-1.8,0.3-4.3-3.2-4.3c-5.6,0-9.1,0-14.6,0l-9.6,38.3c-6.7,0-13.4,0-20.2,0c-3.6,0-5.2-2.9-4.4-6
	c4.4-17.7,9-35.8,13.4-53.4C425.6,74.7,434.5,74.7,478.5,74.7z"/>
<path id="XMLID_768_" class="st0" d="M284.9,113c7.3,0,44.4,0,47.1,0c1.1,0,2.2-0.4,2.8-1.8c2-8.4,0.5-2.5,2.8-11.2
	c0.5-2.2-0.6-4.1-3.1-4.1c-12.3,0-18.2,0-30.6,0c-3.8,0-5.2-3-4.5-6.1l3.8-15.1h50.3c7.7-0.1,15.2,5.1,12.4,16.5
	c-3.2,12.6-7.2,28.2-9.1,36c-1,3.8-4.6,6.9-8.7,6.9c-5.6,0-10,0-16,0c-10.2,0-52.9,0-71,0c-4.9,0-7.1-3.8-6.2-7.4L278,36.1h7.5
	c4.3,0,8.6,0,12.7,0c3.4,0,5.5,2.4,4.6,5.9C296.9,65.6,290.9,89.3,284.9,113z"/>
<g>
	<polygon class="st0" points="439.7,158.9 446.9,158.9 445.3,150.5 	"/>
	<path class="st0" d="M477.1,140h-1.9h-2.1h-2.6c-54,0-299.6,0-324.6,0c-2.9,0-5.2,2-6.1,4.7c-0.1,0.3-0.2,0.7-0.3,1.3
		c-1.6,6.5-3.2,12.8-4.8,19.2c-1,3.5,1.2,7.4,6.1,7.4h56.1h3h2.2h2.8c80.2,0,200.9,0,245.3,0h0.1h2.8h2.1h0.5h2.4h2.1
		c0.1,0,0.2,0,0.2,0h0.3c0.1,0,0.1,0,0.2,0s0.2,0,0.3,0l0.2-0.1c0.1,0,0.2,0,0.2,0c0.1,0,0.2,0,0.3,0c0.1-0.1,0.1-0.1,0.2-0.1h0.2
		c0.1,0,0.2,0,0.3-0.1c0.1,0,0.1,0,0.2,0s0.2-0.1,0.3-0.1c0,0,0.1,0,0.2,0c0.1-0.1,0.2-0.1,0.2-0.1c0.1,0,0.2-0.1,0.3-0.1
		c0,0,0.1,0,0.2,0c0.1-0.1,0.1-0.1,0.2-0.1l0.2-0.1l0.3-0.1c0.1,0,0.1-0.1,0.2-0.1s0.1-0.1,0.2-0.1c0.1,0,0.2-0.1,0.3-0.1
		c0-0.1,0.1-0.1,0.2-0.1c0-0.1,0.1-0.1,0.2-0.1c0.1-0.1,0.1-0.1,0.2-0.2c0.1,0,0.1,0,0.2-0.1l0.2-0.1l0.2-0.1
		c0.1-0.1,0.2-0.2,0.3-0.2c0,0,0.1-0.1,0.2-0.1l0.2-0.2l0.1-0.1c0.1-0.1,0.2-0.1,0.2-0.2c0.1-0.1,0.2-0.1,0.2-0.1l0.2-0.2
		c0.1-0.1,0.2-0.1,0.2-0.2c0.1,0,0.2-0.1,0.2-0.2c0.1,0,0.2-0.1,0.2-0.2c0.1,0,0.1-0.1,0.2-0.2c0,0,0.1-0.1,0.2-0.2
		c0,0,0.1-0.1,0.2-0.1c0-0.1,0.1-0.2,0.1-0.2l0.2-0.2c0-0.1,0.1-0.2,0.2-0.2c0-0.1,0.1-0.2,0.1-0.3c0.1,0,0.1-0.1,0.2-0.2
		c0-0.1,0.1-0.1,0.1-0.2c0.1-0.1,0.1-0.2,0.2-0.3c0,0,0.1-0.1,0.1-0.2c0.1-0.1,0.1-0.1,0.2-0.2c0-0.1,0.1-0.2,0.1-0.3
		c0.1,0,0.1-0.1,0.2-0.2c0-0.1,0-0.2,0.1-0.2c0-0.1,0.1-0.2,0.1-0.3c0.1-0.1,0.1-0.2,0.1-0.3c0.1-0.1,0.1-0.2,0.2-0.3
		c0-0.1,0-0.1,0.1-0.2c0-0.1,0.1-0.2,0.1-0.3s0.1-0.2,0.1-0.3c0-0.1,0.1-0.2,0.1-0.3s0.1-0.2,0.1-0.3c0-0.1,0.1-0.2,0.1-0.3
		s0.1-0.2,0.1-0.3s0.1-0.1,0.1-0.3l0.1-0.3l0.1-0.4l0.1-0.4l0.1-0.3v-0.3l0.2-0.4v-0.4l0.1-0.3l0.1-0.3l0.1-0.3l0.1-0.4l0.1-0.3
		v-0.3l0.1-0.4l0.1-0.3l0.1-0.3l0.1-0.3v-0.3l0.1-0.3l0.1-0.3l0.1-0.3l0.1-0.3v-0.4l0.1-0.2l0.1-0.4l0.1-0.2l0.1-0.3v-0.3l0.1-0.3
		v-0.3l0.1-0.3l0.1-0.3l0.1-0.3l0.1-0.3v-0.3l0.1-0.3l0.1-0.3v-0.3l0.1-0.3l0.1-0.3l0.1-0.3v-0.3l0.1-0.3l0.1-0.3l0.1-0.3v-0.3
		l0.1-0.4l0.1-0.3l0.1-0.3l0.1-0.3v-0.3l0.1-0.3l0.1-0.4l0.1-0.3v-0.3l0.1-0.4l0.1-0.3l0.1-0.3l0.1-0.4l0.1-0.3l0.1-0.4l0.1-0.3
		l0.1-0.4V140H477.1z M170,166.3h-13.3l4.7-19.2h4l-4.1,16.1h9.5L170,166.3z M211.9,156.7c-1.7,6.7-6.2,10.2-12.5,10.2
		c-6.4,0-9.3-3.4-7.6-10.2c1.7-6.7,6.2-10,12.6-10C210.7,146.7,213.6,150,211.9,156.7z M252.3,153.3h-4.1c0.5-2.7-1.6-3.5-3.5-3.5
		c-3.6,0-7.5,1.8-8.8,6.8c-0.9,3.6-0.1,7.1,5.2,7.1c1.5,0,2.9-0.2,4.9-0.9l1-3.6h-5.6l0.7-3h9.3l-2.2,9c-2.7,1.2-6.6,1.7-9.1,1.7
		c-6.4,0-10-3.2-8.3-10.2c1.4-5.8,6.2-10,13-10C250.1,146.7,253.4,148.8,252.3,153.3z M274.5,166.3h-3.8l4.8-19.2h3.8L274.5,166.3z
		 M278.9,145.9h-3.1l2.4-2.4h3.3L278.9,145.9z M315.3,152.9h-3.8c0.5-2.5-0.9-3.2-3.5-3.2c-1.6,0-3.5,0.6-4,2.5
		c-0.4,1.5,0.4,2,1.9,2.4l4.7,0.7c4,0.6,4.2,3.3,3.6,5.3c-1,4-4.6,6.3-10.5,6.3c-5,0-7.6-2.5-6.5-6.5h3.8c-0.3,2.2,0.9,3.6,4,3.6
		c3.2,0,4.7-1.5,5-2.9c0.3-1.4-0.3-2-2.1-2.4l-3.5-0.5c-4.4-0.6-5.3-2.8-4.7-5.3c1.1-4.5,5.3-6.2,9.3-6.2
		C314,146.7,316.1,149,315.3,152.9z M352,150.3h-6.6l-4,16h-3.8l4-16H335l0.7-3.2h17L352,150.3z M372.4,166.3h-3.8l4.7-19.2h3.8
		L372.4,166.3z M414.9,153.2h-4c0.4-2.4-1.6-3.2-3.7-3.2c-2.5,0-6.1,1.4-7.5,6.7c-1.3,5.3,1.6,6.9,4.1,6.9c3.1,0,5-1.8,5.6-3.4h4.1
		c-1.6,5-6.3,6.6-10.7,6.6c-5.8,0-8.7-3.4-6.9-10.2c1.6-6.4,6.2-10,12.2-10C411.6,146.7,416,148.1,414.9,153.2z M448.4,166.3l-1-4.3
		h-9.9l-2.9,4.3h-4.1l13.5-19.2h4.9l4.1,19.2H448.4z"/>
	<path class="st0" d="M203.6,149.8c-3.7,0-6.6,2.5-7.7,6.9c-1.2,4.5,0.5,6.9,4.3,6.9c3.7,0,6.6-2.4,7.8-6.9
		C209,152.2,207.3,149.8,203.6,149.8z"/>
</g>
</svg>
