<?xml version="1.0" encoding="utf-8"?>
<!-- Generator: Adobe Illustrator 17.0.0, SVG Export Plug-In . SVG Version: 6.00 Build 0)  -->
<!DOCTYPE svg PUBLIC "-//W3C//DTD SVG 1.1//EN" "http://www.w3.org/Graphics/SVG/1.1/DTD/svg11.dtd">
<svg version="1.1" id="Camada_1" xmlns="http://www.w3.org/2000/svg" xmlns:xlink="http://www.w3.org/1999/xlink" x="0px" y="0px"
	 width="200px" height="200px" viewBox="0 0 200 200" enable-background="new 0 0 200 200" xml:space="preserve">
<g>
	<path fill-rule="evenodd" clip-rule="evenodd" fill="#FEFEFE" d="M98.128,156.025c20.729-0.102,50.659-12.8,55.282-34.07
		c1.931-8.909,1.039-12.259,2.838-14.585c1.814-2.326,1.419-3.555,4.389-4.769c1.916-0.79,3.643-1.448,4.623-1.814
		c-2.911-0.015-5.837,0.366-8.806,1.273c2.853-1.448,5.895-2.107,8.997-2.253c-0.614-0.541-1.668-1.36-3.204-2.18
		c-2.648-1.419-3.994-1.682-3.994-1.682s-0.512-2.311-3.935-3.935c-3.423-1.609-8.382-0.834-11.293,1.097
		c-1.668,1.112-3.569,3.057-4.886,4.506c-0.395,0.834-0.79,1.551-1.2,2.165c-6.349,9.772-15.17,14.907-18.286,16.721
		c-0.541,0.322-0.907,0.527-1.009,0.614l-1.039,0.863l0.19-1.331c0.029-0.117,6.085-38.678-20.641-63.181
		c-0.002-0.002-0.004-0.004-0.007-0.006c-1.314-1.231-2.78-2.294-4.389-3.102C80.082,44.49,53.845,34.016,28.963,9.416
		c-4.74,16.604,19.12,32.871,31.042,39.644C49.487,44.803,31.07,29.253,30.031,30.13c-1.243,1.039,1.902,7.87,2.545,9.216
		c5.91,12.244,17.291,13.385,29.448,19.164c-7.739-2.589-15.038-6.012-22.791-8.031c-10.313-2.677,0.687,10.328,6.539,12.069
		c7.768,2.311,15.389,3.54,23.45,7.066c-1.755-0.541-31.876-10.401-29.023-2.823c0.585,1.536,2.428,3.555,5.72,5.325
		c7.183,3.862,21.577,6.203,30.267,9.07c-7.797-1.653-15.843-3.438-23.757-5.296c-7.139-2.458-6.598,4.169-1.96,7.87
		c6.875,5.5,21.226,8.104,27.882,10.05c-2.648-0.439-23.084-6.071-24.137-3.511c-3.087,7.548,20.948,11.147,24.913,12.405
		c-3.101-0.38-19.003-2.911-20.114-0.951c-3.686,6.495,19.178,9.787,22.909,10.635c-2.955-0.219-15.741-2.224-17.511-1.317
		c-0.805,0.41-1.463,1.097-0.951,2.194c2.648,5.632,18.593,5.369,25.264,6.393c-7.183-0.263-14.058-0.731-21.036-1.009
		c-0.644,0.57-1.492,1.653-0.805,2.999c2.487,4.798,18.447,3.569,23.947,4.389c-6.583-0.322-11.937-0.102-17.247-0.015
		c-13.385,0.234,2.896,9.538,16.516,8.309c-30.969,12.156-64.176,27.619-64.147,30.808c0.117,12.332,34.451-8.119,38.386-9.099
		c-2.56,2.136-35.314,18.695-33.178,22.031c6.949,10.825,27.502-9.392,37.523-15.141c-1.931,1.682-30.238,22.162-26.858,25.483
		c7.812,7.709,20.831-11.586,29.565-19.134c-5.398,6.129-10.343,12.23-17.949,19.456c-3.189,3.379-1.521,4.403-0.249,6.32
		c3.335,1.097,7.373-0.088,11.352-5.339c4.74-6.32,8.485-10.767,12.961-18.812c-3.774,8.719-8.075,14.19-12.595,20.524
		c-1.448,2.414-1.843,4.228,0.571,4.857c5.925,1.58,17.759-20.948,19.515-25.059c-2.516,8.47-7.051,13.268-10.825,19.295
		c-1.141,3.204,1.434,4.067,1.741,3.994C86.717,191.602,97.776,156.025,98.128,156.025L98.128,156.025z M152.751,98.359
		c-0.834,0-1.492-0.673-1.492-1.492c0-0.899,0.792-1.621,1.74-1.473c0.541,0.085,1.007,0.493,1.163,1.017
		C154.461,97.421,153.718,98.359,152.751,98.359L152.751,98.359z"/>
	<path fill-rule="evenodd" clip-rule="evenodd" fill="#FEFEFE" d="M98.757,21.675c-1.141-3.248-1.697-5.998-2.311-8.865
		c-3.803,1.785,0.293,12.113,0.614,14.205c-0.57-1.521-2.779-6.1-4.096-9.392c-0.585-0.132-1.463-0.073-1.872,1.243
		c-1.872,5.998,2.911,11.206,5.574,16.048c-2.428-2.897-4.081-5.149-6.159-7.548c-0.336,0.205-0.702,0.614-1.024,1.434
		c-1.843,4.681,5.647,13.575,7.534,17.803c-1.726-2.209-4.272-5.588-6.963-7.856c-0.059,0.029-0.102,0.059-0.117,0.117
		c-0.132,0.38-0.775,1.931,1.799,6.451c1.317,2.297,2.531,4.272,3.408,5.661c0.878,0.892,1.477,1.521,1.712,1.726
		c24.503,22.47,21.855,56.54,21.109,63.006l0.161-0.102c3.072-1.785,11.732-6.832,17.949-16.384
		c0.483-0.746,0.965-1.653,1.448-2.706c6.744-23.786-19.617-46.475-29.843-66.692c-5.032-9.933-3.686-26.185-3.686-26.185
		C97.572,8.758,97.338,10.513,98.757,21.675L98.757,21.675z"/>
	<path fill-rule="evenodd" clip-rule="evenodd" fill="#FEFEFE" d="M161.953,75.26c3.35,9.114,1.726,26.931-1.712,35.401l0.746,0.176
		c3.438-7.344,5.296-28.584,1.287-35.635L161.953,75.26z"/>
	<path fill-rule="evenodd" clip-rule="evenodd" fill="#FEFEFE" d="M163.05,73.007c-0.673-2.063-4.447-3.818-5.369-4.272
		c0.117,1.668,0.293,4.959,1.785,6.685c1.507,1.741,3.496,1.741,3.496,1.741C163.357,75.918,163.576,74.645,163.05,73.007
		L163.05,73.007z"/>
	<path fill-rule="evenodd" clip-rule="evenodd" fill="#FEFEFE" d="M162.011,80.482c-1.477-1.302-5.266-0.907-6.188-0.834
		c0.863,1.243,2.531,3.73,4.506,4.403c1.989,0.658,3.555-0.278,3.555-0.278C163.606,82.618,163.196,81.536,162.011,80.482
		L162.011,80.482z"/>
	<path fill-rule="evenodd" clip-rule="evenodd" fill="#FEFEFE" d="M164.644,76.84c1.126-1.638,4.901-2.194,5.822-2.355
		c-0.527,1.434-1.536,4.272-3.306,5.413c-1.77,1.141-3.526,0.614-3.526,0.614C163.606,79.312,163.737,78.142,164.644,76.84
		L164.644,76.84z"/>
	<path fill-rule="evenodd" clip-rule="evenodd" fill="#FEFEFE" d="M166.356,83.979c1.843-1.624,6.539-1.141,7.695-1.053
		c-1.068,1.551-3.145,4.667-5.617,5.486c-2.458,0.819-4.418-0.336-4.418-0.336C164.366,86.626,164.878,85.266,166.356,83.979
		L166.356,83.979z"/>
	<path fill-rule="evenodd" clip-rule="evenodd" fill="#FEFEFE" d="M162.274,87.387c-1.726-1.521-6.129-1.068-7.212-0.98
		c1.009,1.448,2.955,4.359,5.252,5.135c2.311,0.761,4.14-0.322,4.14-0.322C164.132,89.874,163.649,88.601,162.274,87.387
		L162.274,87.387z"/>
</g>
</svg>
