<?xml version="1.0" encoding="iso-8859-1"?>
<!-- Generator: Adobe Illustrator 16.0.0, SVG Export Plug-In . SVG Version: 6.00 Build 0)  -->
<!DOCTYPE svg PUBLIC "-//W3C//DTD SVG 1.1//EN" "http://www.w3.org/Graphics/SVG/1.1/DTD/svg11.dtd">
<svg version="1.1" id="Capa_1" xmlns="http://www.w3.org/2000/svg" xmlns:xlink="http://www.w3.org/1999/xlink" x="0px" y="0px"
	 width="433.277px" height="433.277px" viewBox="0 0 433.277 433.277" style="enable-background:new 0 0 433.277 433.277;"
	 xml:space="preserve" fill="#fff">
<g>
	<g id="icons_1_">
		<g>
			<path d="M132.005,262.312c-17.868-20.495-20.386-52.657-32.563-68.121c-10.221-12.98-26.436-6.694-28.37,4.661
				c-2.992,17.574,15.866,69.358,25.381,85.965c2.37,4.135-1.879,11.778-9.214,5.198c-7.335-6.582-36.501-73.586-25.139-117.817
				c5.563-21.654-8.782-44.287-27.167-32.852C16.548,150.78,5.862,246.07,33.153,301.824c23.029,47.047,71.636,78.16,80.079,83.481
				c5.741,3.617,8.068,24.59,8.97,37.639c0.424,6.141,2.109,10.332,8.919,10.324c7.5-0.01,22.746,0.016,43.903,0.007
				c11.035,0,11.419-6.625,11.416-9.789C186.364,340.352,190.848,329.809,132.005,262.312z"/>
			<path d="M301.272,262.312c17.868-20.495,20.387-52.657,32.563-68.121c10.221-12.98,26.436-6.694,28.37,4.661
				c2.992,17.574-15.866,69.358-25.381,85.965c-2.37,4.135,1.879,11.778,9.214,5.198c7.335-6.582,36.501-73.586,25.139-117.817
				c-5.562-21.654,8.782-44.287,27.167-32.852c18.385,11.434,29.071,106.724,1.78,162.478
				c-23.029,47.047-71.636,78.16-80.079,83.481c-5.741,3.617-8.068,24.59-8.97,37.639c-0.424,6.141-2.109,10.332-8.919,10.324
				c-7.5-0.01-22.746,0.016-43.903,0.007c-11.035,0-11.419-6.625-11.416-9.789C246.913,340.352,242.43,329.809,301.272,262.312z"/>
			<path d="M273.917,0c-22.614,0-43.108,9.024-58.122,23.648C200.782,9.024,180.287,0,157.673,0
				c-46.021,0-83.328,37.307-83.328,83.329c0,17.864,5.64,34.4,15.21,47.966c3.813,5.963,8.394,11.388,13.612,16.125l86.439,86.571
				c8.657,8.659,17.314,17.315,25.971,17.315c0.072,0,0.145-0.012,0.217-0.014c0.072,0.002,0.145,0.014,0.217,0.014
				c8.657,0,17.314-8.656,25.972-17.315l86.438-86.571c5.218-4.738,9.799-10.162,13.612-16.125
				c9.569-13.566,15.21-30.103,15.21-47.966C357.245,37.307,319.938,0,273.917,0z"/>
		</g>
	</g>
</g>
</svg>
