<?xml version="1.0" encoding="utf-8"?>
<!-- Generator: Adobe Illustrator 22.0.0, SVG Export Plug-In . SVG Version: 6.00 Build 0)  -->
<svg version="1.1" id="Camada_1" xmlns="http://www.w3.org/2000/svg" xmlns:xlink="http://www.w3.org/1999/xlink" x="0px" y="0px"
	 viewBox="0 0 143 172.6" xml:space="preserve">
<style type="text/css">
	.st0{fill-rule:evenodd;clip-rule:evenodd;fill:#fff;}
</style>
<path id="XMLID_773_" class="st0" d="M55.9,94.4L79.9,0C86,0,92.2,0,98.4,0c2.6,0,4.3,1.8,3.5,4.6C93.9,36.8,84,75.3,73.1,118
	c-9.9,0.7-17.5-6-18.4-14.5C54.3,100.1,55.2,97.6,55.9,94.4z"/>
<path id="XMLID_772_" class="st0" d="M41.8,0c2.7-0.1,4.3,1.8,3.6,4.6c-7.8,30.8-14.6,57.6-22.1,87.2c-1.9,10.7-0.5,23.5,6.2,34.4
	c6.6,11.2,17.1,19,29.7,22.1c12.5,3.2,25.4,1.4,36.6-5.3c11.2-6.6,18.9-17.1,22.1-29.6c3.2-12.6,1-26-5.3-36.7
	c-4.7-7.8-11.2-14-19.2-18.2c1.9-7.5,3.8-14.9,5.7-22.4c2.1,1,4.2,1.9,6.2,3.1c11.1,6.1,20.4,15,26.9,25.9
	c9.6,16.2,12.4,35.5,7.8,53.9c-4.6,18.3-16.2,33.9-32.5,43.6c-16.2,9.6-35.5,12.5-53.9,7.8C35.3,165.8,19.7,154.3,10,138
	c-9.6-16.1-12.4-35.7-7.8-53.9C9.2,56.1,16.3,28,23.3,0C29.4,0,35.8,0,41.8,0z"/>
<path id="XMLID_771_" class="st0" d="M113.2,112.2c-2.8,11.2-9.9,20.7-19.9,26.7c-9.9,5.9-21.8,7.6-32.9,4.8
	c-11.2-2.9-20.8-10-26.7-20c-6-9.8-7.9-21.7-5.1-32.9L51.6,0C57.8,0,63.8,0,70,0c2.6,0,4.2,1.8,3.5,4.6L73.5,5l-6.4,25.2
	c-5.9,23.3-14.1,55.9-16.2,64.5c-0.9,3.3-1.4,5.7-1,9.2c0.3,3.2,1.4,6.3,3.2,9.1c0.9,1.4,1.9,2.7,3,3.7c11.9,11.8,31.7,5.8,35.7-9.9
	c1.4-5.6,0.5-11.3-2.4-16.1c-1-1.5-1.9-2.9-3.1-4.1c1.9-7.7,3.8-15.4,5.9-23.1c6.6,3.6,12.3,9.1,16.2,15.7
	C114.4,89.2,116.1,100.9,113.2,112.2z"/>
</svg>
